<svg width="48" height="48" fill="none" xmlns="http://www.w3.org/2000/svg"><g clip-path="url(#a)"><path d="m24.002 0-9.896.145C11.551.262 9.807.667 8.281 1.26A11.75 11.75 0 0 0 4.03 4.028a11.78 11.78 0 0 0-2.77 4.251C.665 9.805.26 11.55.145 14.104L0 24l.145 9.894c.118 2.555.522 4.299 1.115 5.825.614 1.578 1.434 2.917 2.768 4.252a11.75 11.75 0 0 0 4.25 2.77c1.527.593 3.272.998 5.826 1.115l9.895.145 9.894-.145c2.555-.117 4.301-.522 5.828-1.115a11.74 11.74 0 0 0 4.249-2.77 11.78 11.78 0 0 0 2.77-4.251c.59-1.526.995-3.271 1.115-5.825L48 24l-.145-9.896c-.12-2.555-.525-4.299-1.115-5.825-.615-1.578-1.435-2.917-2.77-4.251-1.335-1.334-2.67-2.155-4.25-2.768C38.19.667 36.445.262 33.89.145L23.995 0h.007zm-2.153 4.325h2.153l9.698.138c2.34.107 3.61.498 4.456.827a7.42 7.42 0 0 1 2.758 1.795c.84.84 1.36 1.64 1.796 2.76.329.845.72 2.115.827 4.455l.14 9.695-.14 9.695c-.107 2.34-.498 3.61-.827 4.455a7.42 7.42 0 0 1-1.796 2.757 7.42 7.42 0 0 1-2.758 1.795c-.845.33-2.116.72-4.456.827l-9.698.14c-6.409 0-7.168-.025-9.698-.14-2.34-.108-3.61-.499-4.457-.828a7.43 7.43 0 0 1-2.76-1.795c-.84-.84-1.36-1.638-1.796-2.759-.329-.845-.72-2.115-.827-4.455l-.138-9.699.138-9.695c.107-2.34.498-3.61.827-4.456.435-1.12.956-1.92 1.796-2.76.84-.84 1.64-1.36 2.76-1.796.846-.33 2.117-.72 4.457-.827l7.545-.135v.006zM36.813 8.31a2.88 2.88 0 1 0 0 5.762 2.88 2.88 0 0 0 0-5.763v.001zm-12.811 3.365A12.33 12.33 0 0 0 11.677 24c0 6.807 5.519 12.322 12.325 12.322 6.806 0 12.323-5.515 12.323-12.322 0-6.807-5.517-12.325-12.324-12.325h.001zm0 4.325a8 8 0 1 1 0 16.001 8 8 0 0 1 0-16.001z" fill="#0E3542"/></g><defs><clipPath id="a"><path fill="#fff" d="M0 0h48v48H0z"/></clipPath></defs></svg>