<svg width="48" height="48" fill="none" xmlns="http://www.w3.org/2000/svg"><g clip-path="url(#a)"><path fill-rule="evenodd" clip-rule="evenodd" d="M40.9 40.9h-7.11V29.76c0-2.65-.05-6.07-3.7-6.07-3.7 0-4.27 2.9-4.27 5.88V40.9H18.7V18h6.83v3.12h.1a7.49 7.49 0 0 1 6.74-3.7c7.2 0 8.53 4.75 8.53 10.91V40.9zM10.68 14.86a4.15 4.15 0 0 1-4.13-4.12 4.15 4.15 0 0 1 4.13-4.13 4.15 4.15 0 0 1 4.13 4.13 4.15 4.15 0 0 1-4.13 4.12zm3.56 26.04H7.12V18h7.12v22.9zM44.44 0H3.55A3.52 3.52 0 0 0 0 3.46v41.08A3.52 3.52 0 0 0 3.54 48h40.9A3.53 3.53 0 0 0 48 44.54V3.46A3.53 3.53 0 0 0 44.45 0" fill="#0E3542"/></g><defs><clipPath id="a"><path fill="#fff" d="M0 0h48v48H0z"/></clipPath></defs></svg>