<svg width="386" height="240" fill="none" xmlns="http://www.w3.org/2000/svg"><path d="M142.82 4.52c-11.46 8.13-24.8 9.33-36.26 3.47-6.4-3.47-9.07-3.47-16.27-.14-10.8 4.8-14.13 16.14-7.6 25.6 10.27 14.8 33.07 25.2 63.87 28.94 8.93 1.06 13.33 2.4 17.86 5.2 13.6 8.4 19.47 22.53 15.47 37.86-4.27 16.94-13.87 31.87-30.13 46.94-21.87 20.26-43.07 22.93-72.8 9.33l-9.87-4.4 2.8 3.6c8.93 11.47 26.4 21.73 43.33 25.2 10.54 2.13 18.67 1.73 36.14-1.73 3.86-.8 4.13-.4 8.93 9.06 13.6 27.34 38.67 44.27 68.53 46 11.74.8 12.27.67 15.6-2.66 6.8-6.8 3.74-18.27-5.46-20.4-39.6-8.67-56-23.6-57.47-52-.67-13.2 1.6-21.47 9.33-33.6 11.74-18.14 26.67-27.6 46.8-29.74 6.8-.66 14.4-1.86 16.94-2.66 14.93-4.8 27.06-14.94 32.93-27.47 3.6-7.47 17.2-23.07 20.4-23.07 2.27 0 6.53 10.67 7.47 19.07.8 6.8 1.46 7.87 5.33 10.27 6.4 4 11.87 10.8 14.67 18.13a97.8 97.8 0 0 0 2.66 7.07c.27.26 2.27-.94 4.54-2.54 2.26-1.6 6.8-3.73 10.13-4.8 5.07-1.46 5.87-1.46 5.87.27 0 3.07-3.34 8.8-7.34 12.53-2 1.87-6.26 7.34-9.46 12.27-6 9.07-15.07 16.8-23.74 20.4-2.66 1.07-8.8 2-14 2-8.26 0-10.4-.53-20-5.6-9.06-4.67-11.33-5.33-14.4-4.27-7.33 2.54-13.33 20.27-11.86 34.8.8 8 .8 8.4-2.4 9.2-4.54 1.07-30-1.73-42.8-4.8-5.87-1.33-10.8-2.26-11.07-2-1.07 1.07 17.73 13.07 29.2 18.67 19.6 9.47 35.2 12.93 58.53 13.2 20.8.13 31.74-1.6 49.74-8.13 20-7.2 37.2-21.07 44.4-35.74 3.73-7.6 3.86-8.8 3.73-24.66 0-14.8-.53-17.74-3.73-26.67-9.6-25.73-30.4-50.93-49.6-60-4.67-2.27-14.4-5.73-21.6-7.6-11.2-2.93-16.54-3.47-40.4-4-27.6-.67-30.8-.53-65.87 4.93-18.8 2.94-64.67 5.2-64.53 3.2 0-.66 3.46-3.6 7.6-6.66 9.6-6.8 18.13-18.8 18.13-25.47 0-3.47-.93-5.6-3.73-7.87-5.07-4.53-10.8-4-18.54 1.47zM39.9 61.05c-9.07 3.2-12.4 5.07-18.8 10.27C4.82 84.4-2.38 110.8.7 145.85c1.2 13.74 1.87 16.54 4.67 20.27 6.93 9.07 18.8 12 29.33 7.2 6.53-2.93 10.53-8.13 12.53-16.27 1.34-5.46 1.2-6.8-2.66-16.4-10.27-25.6-10.54-50.13-.94-74 1.87-4.53 3.2-8.13 3.07-8.13 0 .13-3.2 1.2-6.8 2.53zm67.07 11.6c-4.67 2.4-7.74 8.27-7.74 14.4 0 6.54 2.14 7.2 3.2.94.94-5.74 9.47-14.8 14-14.8 1.47 0 3.07-.67 3.47-1.34 1.33-2.13-8.8-1.46-12.93.8zM299.22 93.6l3.87 3.6c1.47 1.73 1.6 1.6.4-.8-.93-1.6-2.53-3.2-3.87-3.74-2.13-.66-2.13-.53-.4.94zM71.76 103.72c-6.14 3.73-8.54 7.87-8.54 14.8l.14 6 3.6-7.33c3.86-8 10.4-13.34 16.13-13.34 2.67 0 3.07-.26 1.47-1.33-3.2-2-8.27-1.6-12.8 1.2zm60.13 6.8c-4.93 3.2-10.4 12.27-9.73 16.4.53 4.27 6.66 4.67 12.26.8 6.14-4.13 10.4-10.8 9.87-15.47-.27-3.06-1.07-3.73-4.4-4.13a14.3 14.3 0 0 0-8 2.4zm184.13.27c1.6.66 3.6 2.66 4.27 4.26 1.07 2 1.47 2.27 1.47.67.13-2.53-4-6.53-6.67-6.4-1.07 0-.67.67.93 1.47zm-23.46 7.06c0 3.07 6.26 8.94 8.93 8.4 3.6-.66 3.47-3.46-.13-7.06-3.74-3.74-8.8-4.54-8.8-1.34z" fill="#0E3542"/></svg>